<svg width="318" height="318" viewBox="0 0 318 318" fill="none" xmlns="http://www.w3.org/2000/svg">
<g opacity="0.8">
<circle cx="3.54807" cy="3.54807" r="2.4" fill="#20D596"/>
<circle cx="55.3654" cy="3.54807" r="2.4" fill="#20D596"/>
<circle cx="107.183" cy="3.54807" r="2.4" fill="#20D596"/>
<circle cx="159" cy="3.54807" r="2.4" fill="#20D596"/>
<circle cx="210.817" cy="3.54807" r="2.4" fill="#20D596"/>
<circle cx="262.635" cy="3.54807" r="2.4" fill="#20D596"/>
<circle cx="314.452" cy="3.54807" r="2.4" fill="#20D596"/>
<circle cx="3.54807" cy="55.3655" r="2.4" fill="#20D596"/>
<circle cx="55.3654" cy="55.3655" r="2.4" fill="#20D596"/>
<circle cx="107.183" cy="55.3655" r="2.4" fill="#20D596"/>
<circle cx="159" cy="55.3655" r="2.4" fill="#20D596"/>
<circle cx="210.817" cy="55.3655" r="2.4" fill="#20D596"/>
<circle cx="262.635" cy="55.3655" r="2.4" fill="#20D596"/>
<circle cx="314.452" cy="55.3655" r="2.4" fill="#20D596"/>
<circle cx="3.54807" cy="107.183" r="2.4" fill="#20D596"/>
<circle cx="55.3654" cy="107.183" r="2.4" fill="#20D596"/>
<circle cx="107.183" cy="107.183" r="2.4" fill="#20D596"/>
<circle cx="159" cy="107.183" r="2.4" fill="#20D596"/>
<circle cx="210.817" cy="107.183" r="2.4" fill="#20D596"/>
<circle cx="262.635" cy="107.183" r="2.4" fill="#20D596"/>
<circle cx="314.452" cy="107.183" r="2.4" fill="#20D596"/>
<circle cx="3.54807" cy="159" r="2.4" fill="#20D596"/>
<circle cx="55.3654" cy="159" r="2.4" fill="#20D596"/>
<circle cx="107.183" cy="159" r="2.4" fill="#20D596"/>
<circle cx="159" cy="159" r="2.4" fill="#20D596"/>
<circle cx="210.817" cy="159" r="2.4" fill="#20D596"/>
<circle cx="262.635" cy="159" r="2.4" fill="#20D596"/>
<circle cx="314.452" cy="159" r="2.4" fill="#20D596"/>
<circle cx="3.54807" cy="210.817" r="2.4" fill="#20D596"/>
<circle cx="55.3654" cy="210.817" r="2.4" fill="#20D596"/>
<circle cx="107.183" cy="210.817" r="2.4" fill="#20D596"/>
<circle cx="159" cy="210.817" r="2.4" fill="#20D596"/>
<circle cx="210.817" cy="210.817" r="2.4" fill="#20D596"/>
<circle cx="262.635" cy="210.817" r="2.4" fill="#20D596"/>
<circle cx="314.452" cy="210.817" r="2.4" fill="#20D596"/>
<circle cx="3.54807" cy="262.635" r="2.4" fill="#20D596"/>
<circle cx="55.3654" cy="262.635" r="2.4" fill="#20D596"/>
<circle cx="107.183" cy="262.635" r="2.4" fill="#20D596"/>
<circle cx="159" cy="262.635" r="2.4" fill="#20D596"/>
<circle cx="210.817" cy="262.635" r="2.4" fill="#20D596"/>
<circle cx="262.635" cy="262.635" r="2.4" fill="#20D596"/>
<circle cx="314.452" cy="262.635" r="2.4" fill="#20D596"/>
<circle cx="3.54807" cy="314.452" r="2.4" fill="#20D596"/>
<circle cx="55.3654" cy="314.452" r="2.4" fill="#20D596"/>
<circle cx="107.183" cy="314.452" r="2.4" fill="#20D596"/>
<circle cx="159" cy="314.452" r="2.4" fill="#20D596"/>
<circle cx="210.817" cy="314.452" r="2.4" fill="#20D596"/>
<circle cx="262.635" cy="314.452" r="2.4" fill="#20D596"/>
<circle cx="314.452" cy="314.452" r="2.4" fill="#20D596"/>
</g>
</svg>
